<svg width="77" height="12" fill="none" xmlns="http://www.w3.org/2000/svg"><g clip-path="url(#clip0_31_921)"><path d="M50.13.276h-6.284c-.07 0-.105.035-.105.104-.174 2.801-.698 5.844-1.466 8.3v.103c.035.035.07.035.105.035h2.164c.035 0 .105-.035.105-.07.593-1.901 1.082-4.391 1.257-6.5h2.06v6.466c0 .07.034.104.104.104h2.06c.07 0 .104-.035.104-.104v-8.3c0-.069-.035-.138-.104-.138zm26.565 0h-2.06c-.069 0-.104.035-.104.104v6.432c-.454.138-.907.173-1.396.173-1.362 0-1.676-.415-1.676-2.213V.414c0-.069-.035-.103-.105-.103h-2.06c-.069 0-.104.034-.104.103v4.634c0 2.905.978 4.047 3.526 4.047 1.431 0 3.072-.38 4.014-.727.035 0 .07-.069.07-.103V.415c0-.07-.035-.139-.105-.139zM33.234.311h-2.095c-.07 0-.105.034-.105.069-.314 1.28-.977 3.423-1.885 5.671L27.055.345c0-.034-.07-.069-.105-.069h-2.095c-.034 0-.07.035-.104.035-.035.034-.035.069 0 .103l3.142 8.508c-.315.657-.629 1.21-.908 1.729-.21.38-.419.76-.628 1.175-.035.035 0 .07 0 .104.035.035.07.07.104.07h2.27c.034 0 .07-.035.104-.07.384-.726.873-1.763 1.327-2.8 1.326-3.113 2.408-6.018 3.211-8.681 0-.035 0-.07-.035-.104-.035-.034-.07-.034-.104-.034zm7.47 6.536a.075.075 0 00-.07-.07h-.104c-.489.173-1.432.346-2.095.346-1.431 0-2.094-.38-2.094-2.559 0-1.729.21-2.559 2.094-2.559.524 0 1.047.07 1.676.277.07 0 .105 0 .14-.07.244-.449.523-.968.837-1.66V.45a.075.075 0 00-.07-.07c-.837-.276-1.85-.414-2.723-.414-3.002 0-4.328 1.383-4.328 4.53 0 3.182 1.326 4.6 4.328 4.6.734 0 2.235-.173 2.933-.45.07-.035.07-.07.07-.138l-.594-1.66zM60.218.31h-2.094c-.035 0-.105.034-.105.069-.314 1.28-.977 3.423-1.885 5.671L54.04.345c0-.034-.07-.069-.104-.069H51.84c-.035 0-.07.035-.105.035-.034.034-.034.069 0 .103l3.142 8.508c-.314.657-.628 1.175-.907 1.729-.21.38-.42.76-.629 1.175-.035.035 0 .07 0 .104.035.035.07.07.105.07h2.27c.034 0 .069-.035.104-.07a44.98 44.98 0 001.326-2.8c1.327-3.113 2.41-6.018 3.177-8.681 0-.035 0-.07-.035-.104 0-.034-.035-.034-.07-.034zm7.68-.035h-6.074c-.07 0-.105.035-.105.104v8.334c0 .07.035.104.105.104h2.06c.07 0 .105-.035.105-.104V2.282h3.176c.035 0 .105-.035.105-.07.244-.553.489-1.175.733-1.763V.345c-.035-.034-.07-.069-.105-.069z" fill="#EE3F58"/><path d="M10.927 7.193c-1.362 0-1.78-.38-1.78-2.628 0-2.42.453-2.628 1.78-2.628 1.326 0 1.815.207 1.815 2.628 0 2.282-.454 2.628-1.816 2.628zm0-7.158c-2.968 0-4.12 1.245-4.12 4.495 0 3.286 1.152 4.565 4.12 4.565 2.967 0 4.154-1.28 4.154-4.565 0-3.216-1.187-4.495-4.154-4.495zM23.25 6.847c0-.034-.035-.069-.07-.069h-.105c-.489.173-1.431.346-2.095.346-1.43 0-2.094-.38-2.094-2.56 0-1.728.21-2.558 2.094-2.558a5.15 5.15 0 011.676.276c.035 0 .105 0 .14-.069.244-.45.523-.968.838-1.66V.45a.075.075 0 00-.07-.07A9.893 9.893 0 0020.876 0c-3.003 0-4.33 1.383-4.33 4.53 0 3.182 1.328 4.6 4.33 4.6.733 0 2.234-.173 2.932-.45.07-.034.07-.069.07-.138l-.628-1.695zM6.178.277H.105C.035.277 0 .346 0 .415v8.334c0 .07.035.104.105.104h2.06c.07 0 .104-.035.104-.104V2.282h3.177c.035 0 .07-.034.105-.069.244-.553.488-1.176.733-1.763V.346c-.035-.035-.07-.07-.105-.07z" fill="#0065B1"/></g><defs><clipPath id="clip0_31_921"><path fill="#fff" d="M0 0h76.8v12H0z"/></clipPath></defs></svg>