<svg width="232" height="47" fill="none" xmlns="http://www.w3.org/2000/svg"><path fill-rule="evenodd" clip-rule="evenodd" d="M232 34.078h-3.223l-1.779-6.475c-.438-1.388-1.315-2.077-2.622-2.077l-4.279-.033v8.576h-2.98V13.298c1.705-.178 4.125-.268 7.259-.268 2.509 0 4.279.43 5.318 1.299 1.031.86 1.551 2.442 1.551 4.73 0 1.663-.301 2.92-.885 3.765-.593.843-1.575 1.355-2.939 1.533v.154c1.347.406 2.216 1.404 2.622 3.01L232 34.079zm-93.269-10.84v.122c1.51.138 2.574.665 3.207 1.582s.95 2.232.95 3.96c0 2.085-.495 3.513-1.494 4.276-.991.762-2.728 1.144-5.196 1.144-3.394 0-6.009-.081-7.836-.244V13.307c1.624-.162 3.938-.244 6.926-.244 2.615 0 4.425.374 5.44 1.128 1.015.755 1.518 2.183 1.518 4.292 0 1.51-.284 2.646-.844 3.416-.552.771-1.445 1.217-2.671 1.34zm-19.488.122v-.122c1.218-.121 2.12-.568 2.672-1.338.56-.771.844-1.907.844-3.416 0-2.11-.503-3.538-1.518-4.293-1.015-.754-2.826-1.128-5.44-1.128-2.988 0-5.302.082-6.926.244v20.771c1.827.163 4.441.244 7.835.244 2.469 0 4.206-.382 5.197-1.144.998-.763 1.494-2.191 1.494-4.276 0-1.729-.317-3.043-.95-3.96-.634-.917-1.697-1.444-3.208-1.582zm-15.281 8.22l.154 2.32c-1.826.162-4.798.243-8.915.243-1.282 0-2.297-.333-3.044-1.006-.747-.673-1.129-1.582-1.145-2.726V16.982c.016-1.144.398-2.052 1.145-2.726.738-.673 1.753-1.006 3.044-1.006 4.117 0 7.089.081 8.915.243l-.154 2.345h-8.257c-.601 0-1.031.146-1.283.438-.252.293-.374.788-.374 1.493v4.155h8.769v2.442h-8.769v5.298c0 .706.122 1.201.374 1.493.252.292.674.439 1.283.439h8.257v-.017zM87.009 13.307l-.001.008h-3.214l-2.98 15.895c-.057.284-.13.714-.21 1.298-.04.28-.073.524-.102.734-.03.229-.056.416-.078.564h-.69a59.547 59.547 0 00-.454-2.62l-2.956-14.873a1.301 1.301 0 00-.406-.706 1.08 1.08 0 00-.739-.284h-3.223c-.625 0-1.007.324-1.145.99l-2.98 14.84a25.238 25.238 0 00-.454 2.653h-.69a109.727 109.727 0 00-.366-2.653l-2.98-15.838h-3.19l3.978 19.903c.138.584.52.876 1.145.876h3.377c.285 0 .544-.089.772-.26a.988.988 0 00.406-.648l2.98-15.263.454-2.345h.633c.082.52.22 1.299.423 2.345l3.012 15.263c.146.6.536.9 1.177.9h3.346c.6 0 .998-.292 1.177-.876l3.977-19.895h.001v-.008zm24.822 8.85h4.214c1.445 0 2.444-.227 2.996-.673.552-.454.828-1.33.828-2.637 0-1.282-.3-2.142-.901-2.572-.601-.43-1.705-.649-3.313-.649h-3.824v6.532zm4.425 9.6l-4.425-.033V24.48h4.246c1.632.024 2.753.3 3.362.843.609.536.917 1.558.917 3.067 0 1.347-.292 2.24-.86 2.694-.577.447-1.657.674-3.24.674zm19.275-9.6h-4.214v-6.531h3.825c1.607 0 2.711.219 3.312.65.601.43.902 1.29.902 2.571 0 1.306-.276 2.183-.829 2.637-.552.446-1.55.674-2.996.674zm-4.214 9.567l4.425.033c1.584 0 2.664-.228 3.24-.674.568-.454.861-1.347.861-2.694 0-1.509-.309-2.531-.918-3.067-.609-.543-1.729-.82-3.361-.843h-4.247v7.245zm19.284-3.91h8.282l1.932 6.263h3.102l-6.536-19.96c-.122-.544-.488-.811-1.088-.811h-3.07c-.576 0-.95.267-1.112.811l-6.504 19.96h3.07l1.924-6.264zm7.504-2.622l-2.444-7.886a47.958 47.958 0 01-.26-.844l-.063-.212a13.228 13.228 0 00-.197-.632h-.812l-.479 1.688-2.444 7.887h6.699zm25.632 7.709V13.307h-2.98v14.597c0 .94.057 2.02.154 3.22h-.454l-.471-1.038a49.593 49.593 0 00-.561-1.176 25.086 25.086 0 01-.422-.885l-6.292-13.785c-.301-.625-.739-.933-1.324-.933h-2.769c-.763 0-1.144.397-1.144 1.176v19.595h3.012V18.994c0-1.12-.057-2.085-.154-2.888h.422c.097.357.511 1.322 1.234 2.888l6.479 14.151c.268.625.699.933 1.299.933h2.858c.739 0 1.113-.398 1.113-1.176zm10.969-8.431h-2.346c.138.843.211 1.558.211 2.134v7.464h-3.012v-20.77h3.012v6.385c0 .86-.073 1.648-.211 2.345h2.346l6.114-8.73h3.28l-5.878 8.487c-.325.462-.747.941-1.267 1.444v.09a8.695 8.695 0 011.446 1.565l6.081 9.185h-3.345l-6.431-9.598zm13.584 9.607h3.012v-20.77h-3.012v20.771zm16.021-11.14h-4.214v-7.279c.763-.024 2.168-.032 4.214-.032 1.485 0 2.509.252 3.061.754.552.495.828 1.453.828 2.857 0 1.428-.276 2.393-.828 2.904-.552.512-1.576.78-3.061.796z" fill="#010101"/><path d="M23.2 0c12.797 0 23.2 10.38 23.2 23.2 0 12.797-10.38 23.2-23.2 23.2C10.403 46.4 0 36.02 0 23.2 0 10.38 10.38 0 23.2 0z" fill="#FFDE52"/><path d="M14.377 27.637a1.723 1.723 0 01-.236-.331 1.104 1.104 0 01-.07-.402c0-.142.023-.284.07-.402a.784.784 0 01.236-.33l13.31-13.357c.094-.094.212-.165.33-.236.118-.048.26-.071.402-.071.142 0 .284.024.402.07a.785.785 0 01.33.237l7.943 7.966c.095.095.166.213.237.331.047.119.07.26.07.402 0 .142-.023.284-.07.402a.784.784 0 01-.237.331L23.786 35.603a.992.992 0 01-.331.213 1.202 1.202 0 01-.804 0 .99.99 0 01-.33-.213l-7.944-7.966z" fill="#FFDE52"/><path d="M14.377 27.637a1.723 1.723 0 01-.236-.331 1.104 1.104 0 01-.07-.402c0-.142.023-.284.07-.402a.784.784 0 01.236-.33l13.31-13.357c.094-.094.212-.165.33-.236.118-.048.26-.071.402-.071.142 0 .284.024.402.07a.785.785 0 01.33.237l7.943 7.966c.095.095.166.213.237.331.047.119.07.26.07.402 0 .142-.023.284-.07.402a.784.784 0 01-.237.331L23.786 35.603a.992.992 0 01-.331.213 1.202 1.202 0 01-.804 0 .99.99 0 01-.33-.213l-7.944-7.966z" fill="#fff"/><path d="M14.377 27.637a1.723 1.723 0 01-.236-.331 1.104 1.104 0 01-.07-.402c0-.142.023-.284.07-.402a.784.784 0 01.236-.33l13.31-13.357c.094-.094.212-.165.33-.236.118-.048.26-.071.402-.071.142 0 .284.024.402.07a.785.785 0 01.33.237l7.943 7.966c.095.095.166.213.237.331.047.119.07.26.07.402 0 .142-.023.284-.07.402a.784.784 0 01-.237.331L23.786 35.603a.992.992 0 01-.331.213 1.202 1.202 0 01-.804 0 .99.99 0 01-.33-.213l-7.944-7.966z" fill="#FFDE52"/><path d="M14.377 27.637a1.723 1.723 0 01-.236-.331 1.104 1.104 0 01-.07-.402c0-.142.023-.284.07-.402a.784.784 0 01.236-.33l13.31-13.357c.094-.094.212-.165.33-.236.118-.048.26-.071.402-.071.142 0 .284.024.402.07a.785.785 0 01.33.237l7.943 7.966c.095.095.166.213.237.331.047.119.07.26.07.402 0 .142-.023.284-.07.402a.784.784 0 01-.237.331L23.786 35.603a.992.992 0 01-.331.213 1.202 1.202 0 01-.804 0 .99.99 0 01-.33-.213l-7.944-7.966z" fill="#fff"/><path fill-rule="evenodd" clip-rule="evenodd" d="M28.287 13.158a.845.845 0 00-.151.106l-13.334 13.38-.027.023a.086.086 0 00-.018.02.262.262 0 00-.026.051.56.56 0 00-.01.298c.054.09.08.127.106.152l7.943 7.966c.02.02.055.045.102.066a.543.543 0 00.347.006.366.366 0 00.118-.072l13.333-13.38.028-.023a.083.083 0 00.017-.019.265.265 0 00.026-.052.56.56 0 00.01-.298.84.84 0 00-.105-.151l-7.968-7.992-.022-.027a.083.083 0 00-.02-.017.268.268 0 00-.05-.026.554.554 0 00-.298-.01zm-.505-1.169c.206-.082.43-.116.637-.116.207 0 .431.034.638.116.178.072.388.19.565.399l7.922 7.945a2.211 2.211 0 01.332.453l.026.043.019.048c.083.207.116.431.116.638 0 .206-.033.43-.116.637-.071.178-.19.388-.398.565L24.235 36.052a1.638 1.638 0 01-.544.354 1.736 1.736 0 01-.638.116 1.84 1.84 0 01-.602-.103l-.018-.006-.017-.007a1.625 1.625 0 01-.545-.354l-7.942-7.966a2.21 2.21 0 01-.322-.436 1.527 1.527 0 00-.01-.017l-.026-.044-.02-.047a1.737 1.737 0 01-.116-.638c0-.206.034-.43.117-.637.07-.178.189-.388.397-.565l13.288-13.335a2.202 2.202 0 01.454-.333l.043-.026.048-.019z" fill="#010101"/><path d="M23.613 35.714a1.647 1.647 0 01-.324.23c-.116.046-.254.07-.393.07-.138 0-.254-.024-.393-.07a.766.766 0 01-.323-.23L9.17 22.684a1.01 1.01 0 01-.301-.716c0-.276.116-.53.3-.715l7.788-7.771a1.61 1.61 0 01.324-.231c.115-.046.254-.07.393-.07.138 0 .254.024.392.07a.766.766 0 01.324.23l13.01 13.03c.185.185.3.439.3.716 0 .276-.115.53-.3.715l-7.787 7.772z" fill="#FFDE52"/><path d="M23.613 35.714a1.647 1.647 0 01-.324.23c-.116.046-.254.07-.393.07-.138 0-.254-.024-.393-.07a.766.766 0 01-.323-.23L9.17 22.684a1.01 1.01 0 01-.301-.716c0-.276.116-.53.3-.715l7.788-7.771a1.61 1.61 0 01.324-.231c.115-.046.254-.07.393-.07.138 0 .254.024.392.07a.766.766 0 01.324.23l13.01 13.03c.185.185.3.439.3.716 0 .276-.115.53-.3.715l-7.787 7.772z" fill="#fff"/><path fill-rule="evenodd" clip-rule="evenodd" d="M17.55 13.83a.81.81 0 00-.144.1l-7.788 7.772a.376.376 0 00-.114.266c0 .097.04.192.114.265h.001L22.654 35.29l.022.027a.067.067 0 00.015.014l.033.017a.514.514 0 00.296.017.8.8 0 00.144-.1l7.788-7.773a.376.376 0 00.114-.265.376.376 0 00-.114-.265L17.916 13.905l-.021-.027a.07.07 0 00-.016-.014.207.207 0 00-.033-.018.518.518 0 00-.296-.016zm-.504-1.17c.204-.081.425-.114.628-.114.222 0 .406.04.593.102l.018.005.017.007c.175.07.383.187.558.393L31.85 26.06c.295.296.486.709.486 1.165 0 .457-.19.869-.487 1.164l-7.788 7.772a2.09 2.09 0 01-.429.316l-.016.01-.044.026-.047.02a1.714 1.714 0 01-.628.114c-.223 0-.407-.04-.594-.102l-.018-.006-.017-.007a1.406 1.406 0 01-.558-.392L8.721 23.132a1.646 1.646 0 01-.487-1.164c0-.457.191-.87.487-1.165l7.788-7.772c.149-.149.324-.253.429-.316l.017-.01.043-.026.048-.019z" fill="#010101"/><circle cx="25.809" cy="30.121" r=".737" fill="#010101"/><path fill="#010101" d="M30.18 13.661l2.083 2.083-5.729 5.73-2.083-2.084z"/></svg>