<svg width="77" height="12" viewBox="0 0 77 12" fill="none" xmlns="http://www.w3.org/2000/svg">
<g clip-path="url(#clip0_31_921)">
<path d="M50.1297 0.276083H43.8461C43.7762 0.276083 43.7413 0.310665 43.7413 0.379829C43.5668 3.18098 43.0432 6.22421 42.2752 8.67954V8.78329C42.3101 8.81787 42.345 8.81787 42.3799 8.81787H44.5442C44.5792 8.81787 44.649 8.78329 44.649 8.7487C45.2424 6.84669 45.7312 4.35677 45.9057 2.24726H47.9653V8.71412C47.9653 8.78329 48.0002 8.81787 48.0701 8.81787H50.1297C50.1995 8.81787 50.2344 8.78329 50.2344 8.71412V0.414411C50.2344 0.345247 50.1995 0.276083 50.1297 0.276083ZM76.6955 0.276083H74.6359C74.5661 0.276083 74.5312 0.310665 74.5312 0.379829V6.81211C74.0773 6.95043 73.6235 6.98502 73.1348 6.98502C71.7733 6.98502 71.4591 6.57003 71.4591 4.77176V0.414411C71.4591 0.345247 71.4242 0.310665 71.3544 0.310665H69.2948C69.225 0.310665 69.1901 0.345247 69.1901 0.414411V5.04842C69.1901 7.95332 70.1675 9.09453 72.7159 9.09453C74.1472 9.09453 75.7879 8.71412 76.7304 8.3683C76.7653 8.3683 76.8002 8.29914 76.8002 8.26455V0.414411C76.8002 0.345247 76.7653 0.276083 76.6955 0.276083ZM33.2337 0.310665H31.1392C31.0693 0.310665 31.0344 0.345247 31.0344 0.379829C30.7202 1.65937 30.057 3.80346 29.1493 6.0513L27.0548 0.345247C27.0548 0.310665 26.985 0.276083 26.9501 0.276083H24.8555C24.8206 0.276083 24.7857 0.310665 24.7508 0.310665C24.7159 0.345247 24.7159 0.379829 24.7508 0.414411L27.8926 8.92161C27.5784 9.57868 27.2642 10.132 26.985 10.6507C26.7755 11.0311 26.5661 11.4115 26.3566 11.8265C26.3217 11.8611 26.3566 11.8957 26.3566 11.9303C26.3915 11.9648 26.4264 11.9994 26.4613 11.9994H28.7304C28.7653 11.9994 28.8002 11.9648 28.8352 11.9303C29.2192 11.204 29.7079 10.1666 30.1617 9.12911C31.4882 6.01672 32.5704 3.11182 33.3733 0.448994C33.3733 0.414411 33.3733 0.379829 33.3384 0.345247C33.3035 0.310665 33.2686 0.310665 33.2337 0.310665ZM40.7042 6.84669C40.7042 6.81211 40.6693 6.77752 40.6344 6.77752H40.5297C40.041 6.95043 39.0984 7.12334 38.4352 7.12334C37.0039 7.12334 36.3406 6.74294 36.3406 4.56427C36.3406 2.83516 36.5501 2.00519 38.4352 2.00519C38.9588 2.00519 39.4824 2.07435 40.1108 2.28185C40.1806 2.28185 40.2155 2.28185 40.2504 2.21268C40.4948 1.76311 40.7741 1.24438 41.0882 0.55274V0.448994C41.0882 0.414411 41.0533 0.379829 41.0184 0.379829C40.1806 0.103172 39.1682 -0.0351562 38.2955 -0.0351562C35.2933 -0.0351562 33.9668 1.34813 33.9668 4.4951C33.9668 7.67666 35.2933 9.09453 38.2955 9.09453C39.0286 9.09453 40.5297 8.92162 41.2279 8.64496C41.2977 8.61038 41.2977 8.57579 41.2977 8.50663L40.7042 6.84669ZM60.2184 0.310665H58.1239C58.089 0.310665 58.0191 0.345247 58.0191 0.379829C57.705 1.65937 57.0417 3.80346 56.1341 6.0513L54.0395 0.345247C54.0395 0.310665 53.9697 0.276083 53.9348 0.276083H51.8402C51.8053 0.276083 51.7704 0.310665 51.7355 0.310665C51.7006 0.345247 51.7006 0.379829 51.7355 0.414411L54.8773 8.92161C54.5631 9.57868 54.249 10.0974 53.9697 10.6507C53.7602 11.0311 53.5508 11.4115 53.3413 11.8265C53.3064 11.8611 53.3413 11.8957 53.3413 11.9303C53.3762 11.9648 53.4112 11.9994 53.4461 11.9994H55.7152C55.7501 11.9994 55.785 11.9648 55.8199 11.9303C56.2039 11.204 56.6926 10.1666 57.1464 9.12911C58.473 6.01672 59.5551 3.11182 60.3232 0.448994C60.3232 0.414411 60.3231 0.379829 60.2882 0.345247C60.2882 0.310665 60.2533 0.310665 60.2184 0.310665ZM67.8984 0.276083H61.8242C61.7544 0.276083 61.7195 0.310665 61.7195 0.379829V8.71412C61.7195 8.78329 61.7544 8.81787 61.8242 8.81787H63.8839C63.9537 8.81787 63.9886 8.78329 63.9886 8.71412V2.28185H67.1653C67.2002 2.28185 67.2701 2.24726 67.2701 2.21268C67.5144 1.65937 67.7588 1.03689 68.0032 0.448994V0.345247C67.9682 0.310665 67.9333 0.276083 67.8984 0.276083Z" fill="#EE3F58"/>
<path d="M10.9265 7.19308C9.56509 7.19308 9.14618 6.81268 9.14618 4.56484C9.14618 2.14409 9.6 1.9366 10.9265 1.9366C12.2531 1.9366 12.7418 2.14409 12.7418 4.56484C12.7418 6.84726 12.288 7.19308 10.9265 7.19308ZM10.9265 0.0345821C7.95927 0.0345821 6.80727 1.27954 6.80727 4.53026C6.80727 7.81556 7.95927 9.0951 10.9265 9.0951C13.8938 9.0951 15.0807 7.81556 15.0807 4.53026C15.0807 1.31412 13.8938 0.0345821 10.9265 0.0345821ZM23.2495 6.84726C23.2495 6.81268 23.2145 6.7781 23.1796 6.7781H23.0749C22.5862 6.95101 21.6436 7.12392 20.9804 7.12392C19.5491 7.12392 18.8858 6.74351 18.8858 4.56484C18.8858 2.83573 19.0953 2.00576 20.9804 2.00576C21.504 2.00576 22.0276 2.07493 22.656 2.28242C22.6909 2.28242 22.7607 2.28242 22.7956 2.21326C23.04 1.76369 23.3193 1.24496 23.6335 0.553314V0.449568C23.6335 0.414985 23.5985 0.380403 23.5636 0.380403C22.7607 0.138329 21.7484 0 20.8756 0C17.8735 0 16.5469 1.38328 16.5469 4.53026C16.5469 7.71181 17.8735 9.12968 20.8756 9.12968C21.6087 9.12968 23.1098 8.95677 23.808 8.68011C23.8778 8.64553 23.8778 8.61095 23.8778 8.54178L23.2495 6.84726ZM6.17891 0.276657H0.104727C0.0349091 0.276657 0 0.345821 0 0.414986V8.74928C0 8.81844 0.0349091 8.85302 0.104727 8.85302H2.16436C2.23418 8.85302 2.26909 8.81844 2.26909 8.74928V2.28242H5.44582C5.48073 2.28242 5.51564 2.24784 5.55054 2.21326C5.79491 1.65994 6.03927 1.03746 6.28364 0.449568V0.345821C6.24873 0.311239 6.21382 0.276657 6.17891 0.276657Z" fill="#0065B1"/>
</g>
<defs>
<clipPath id="clip0_31_921">
<rect width="76.8" height="12" fill="white"/>
</clipPath>
</defs>
</svg>
