<svg width="232" height="47" viewBox="0 0 232 47" fill="none" xmlns="http://www.w3.org/2000/svg">
<path fill-rule="evenodd" clip-rule="evenodd" d="M232 34.0776H228.777L226.998 27.6028C226.56 26.2153 225.683 25.5256 224.376 25.5256L220.097 25.4932V34.0695H217.117V13.298C218.822 13.1195 221.242 13.0303 224.376 13.0303C226.885 13.0303 228.655 13.4603 229.694 14.3285C230.725 15.1886 231.245 16.7708 231.245 19.0589C231.245 20.7222 230.944 21.9799 230.36 22.8237C229.767 23.6675 228.785 24.1787 227.421 24.3572V24.5114C228.768 24.9171 229.637 25.9151 230.043 27.5216L232 34.0776ZM138.731 23.2383V23.36C140.241 23.4979 141.305 24.0253 141.938 24.9422C142.571 25.859 142.888 27.1735 142.888 28.9017C142.888 30.987 142.393 32.415 141.394 33.1777C140.403 33.9404 138.666 34.3218 136.198 34.3218C132.804 34.3218 130.189 34.2406 128.362 34.0784V13.3069C129.986 13.1446 132.3 13.0635 135.288 13.0635C137.903 13.0635 139.713 13.4367 140.728 14.1913C141.743 14.9459 142.246 16.3739 142.246 18.4835C142.246 19.9927 141.962 21.1286 141.402 21.8995C140.85 22.6703 139.957 23.1165 138.731 23.2383ZM119.243 23.36V23.2383C120.461 23.1166 121.363 22.6703 121.915 21.8995C122.475 21.1287 122.759 19.9927 122.759 18.4836C122.759 16.374 122.256 14.9459 121.241 14.1913C120.226 13.4367 118.415 13.0635 115.801 13.0635C112.813 13.0635 110.499 13.1446 108.875 13.3069V34.0784C110.702 34.2407 113.316 34.3218 116.71 34.3218C119.179 34.3218 120.916 33.9405 121.907 33.1778C122.905 32.4151 123.401 30.987 123.401 28.9018C123.401 27.1735 123.084 25.8591 122.451 24.9422C121.817 24.0253 120.754 23.4979 119.243 23.36ZM103.962 31.5792L104.116 33.8998C102.29 34.0621 99.3179 34.1432 95.2013 34.1432C93.9185 34.1432 92.9035 33.8105 92.1566 33.1371C91.4096 32.4636 91.028 31.5549 91.0117 30.4108V16.9824C91.028 15.8384 91.4096 14.9296 92.1566 14.2561C92.8954 13.5827 93.9103 13.25 95.2013 13.25C99.3179 13.25 102.29 13.3312 104.116 13.4934L103.962 15.8384H95.7047C95.1039 15.8384 94.6736 15.9844 94.4219 16.2765C94.1702 16.5686 94.0484 17.0635 94.0484 17.7694V21.9237H102.817V24.366H94.0484V29.6644C94.0484 30.3703 94.1702 30.8652 94.4219 31.1573C94.6736 31.4494 95.0958 31.5955 95.7047 31.5955H103.962V31.5792ZM87.0093 13.3076L87.0077 13.3158H83.794L80.8142 29.2108C80.7574 29.4948 80.6843 29.9248 80.6031 30.509C80.5643 30.7886 80.531 31.0328 80.5024 31.2426L80.5024 31.2431L80.5023 31.2438C80.4712 31.472 80.4456 31.6594 80.4245 31.8072H79.7344C79.5882 30.866 79.4421 29.9897 79.2797 29.1865L76.3242 14.3138C76.2674 14.0379 76.1293 13.8026 75.9182 13.6079C75.7071 13.4212 75.4636 13.3239 75.1794 13.3239H71.956C71.3308 13.3239 70.9492 13.6484 70.8111 14.3138L67.8313 29.154C67.6283 30.0628 67.4741 30.9472 67.3766 31.8072H66.6865C66.4998 30.3792 66.378 29.4948 66.3211 29.154L63.3413 13.3158H60.1504L64.1289 33.2191C64.2669 33.8032 64.6485 34.0953 65.2737 34.0953H68.6514C68.9356 34.0953 69.1954 34.0061 69.4227 33.8357C69.6501 33.6653 69.7881 33.4462 69.8287 33.1866L72.8085 17.9244L73.2632 15.5795H73.8965C73.9777 16.0988 74.1157 16.8777 74.3187 17.9244L77.331 33.1866C77.4772 33.787 77.8669 34.0872 78.5083 34.0872H81.8535C82.4543 34.0872 82.8522 33.7951 83.0308 33.2109L87.0077 13.3158H87.0093V13.3076ZM111.831 22.1586H116.045C117.49 22.1586 118.489 21.9315 119.041 21.4852C119.593 21.0308 119.869 20.1545 119.869 18.8482C119.869 17.5662 119.569 16.7061 118.968 16.2761C118.367 15.8461 117.263 15.627 115.655 15.627H111.831V22.1586ZM116.256 31.7577L111.831 31.7252V24.4795H116.077C117.709 24.5039 118.83 24.7797 119.439 25.3234C120.048 25.8589 120.356 26.8812 120.356 28.3904C120.356 29.7373 120.064 30.6298 119.496 31.0842C118.919 31.5305 117.839 31.7577 116.256 31.7577ZM135.531 22.1586H131.317V15.627H135.142C136.749 15.627 137.853 15.846 138.454 16.2761C139.055 16.7061 139.356 17.5662 139.356 18.8482C139.356 20.1545 139.08 21.0308 138.527 21.4852C137.975 21.9314 136.977 22.1586 135.531 22.1586ZM131.317 31.7252L135.742 31.7576C137.326 31.7576 138.406 31.5304 138.982 31.0842C139.55 30.6298 139.843 29.7373 139.843 28.3904C139.843 26.8812 139.534 25.8588 138.925 25.3233C138.316 24.7797 137.196 24.5038 135.564 24.4795H131.317V31.7252ZM150.601 27.8142H158.883L160.815 34.0781H163.917L157.381 14.118C157.259 13.5744 156.893 13.3066 156.293 13.3066H153.223C152.647 13.3066 152.273 13.5744 152.111 14.118L145.607 34.0781H148.677L150.601 27.8142ZM158.105 25.1935L155.661 17.3068C155.604 17.1283 155.515 16.8443 155.401 16.463L155.338 16.251L155.338 16.2505C155.256 15.9746 155.193 15.7627 155.141 15.6191H154.329L153.85 17.3068L151.406 25.1935H158.105ZM183.737 32.9016V13.3066H180.757V27.9035C180.757 28.8447 180.814 29.9238 180.911 31.1247H180.457C180.31 30.8001 180.156 30.4593 179.986 30.0861C179.815 29.7129 179.628 29.3234 179.425 28.9096C179.222 28.5039 179.084 28.2037 179.003 28.0252L172.711 14.2397C172.41 13.615 171.972 13.3066 171.387 13.3066H168.618C167.855 13.3066 167.474 13.7042 167.474 14.4831V34.0781H170.486V18.9945C170.486 17.8747 170.429 16.9092 170.332 16.1059H170.754C170.851 16.4629 171.265 17.4285 171.988 18.9945L178.467 33.145C178.735 33.7698 179.166 34.0781 179.766 34.0781H182.624C183.363 34.0781 183.737 33.6805 183.737 32.9016ZM194.706 24.4706H192.36C192.498 25.3145 192.571 26.0285 192.571 26.6046V34.0693H189.559V13.2979H192.571V19.6835C192.571 20.5435 192.498 21.3306 192.36 22.0284H194.706L200.82 13.2979H204.1L198.222 21.7849C197.897 22.2474 197.475 22.7262 196.955 23.2292V23.3185C197.516 23.7972 198.003 24.3246 198.401 24.8844L204.482 34.0693H201.137L194.706 24.4706ZM208.29 34.0781H211.302V13.3066H208.29V34.0781ZM224.311 22.9375H220.097V15.6594C220.86 15.6351 222.265 15.627 224.311 15.627C225.796 15.627 226.82 15.8785 227.372 16.3815C227.924 16.8765 228.2 17.8339 228.2 19.2376C228.2 20.6657 227.924 21.6312 227.372 22.1424C226.82 22.6536 225.796 22.9213 224.311 22.9375Z" fill="#010101"/>
<path d="M23.2 0C35.9967 0 46.4 10.3796 46.4 23.2C46.4 35.9967 36.0204 46.4 23.2 46.4C10.4033 46.4 0 36.0204 0 23.2C0 10.3796 10.3796 0 23.2 0Z" fill="#FFDE52"/>
<path d="M14.3775 27.6367C14.2829 27.5421 14.212 27.4239 14.1411 27.3058C14.0938 27.1876 14.0702 27.0457 14.0702 26.9039C14.0702 26.7621 14.0938 26.6202 14.1411 26.502C14.1884 26.3838 14.2593 26.2656 14.3775 26.1711L27.6862 12.8151C27.7807 12.7206 27.8989 12.6496 28.0171 12.5787C28.1353 12.5315 28.2772 12.5078 28.419 12.5078C28.5608 12.5078 28.7027 12.5315 28.8209 12.5787C28.939 12.626 29.0572 12.6969 29.1518 12.8151L37.0945 20.7814C37.189 20.876 37.2599 20.9942 37.3309 21.1124C37.3781 21.2306 37.4018 21.3724 37.4018 21.5142C37.4018 21.6561 37.3781 21.7979 37.3309 21.9161C37.2836 22.0343 37.2127 22.1525 37.0945 22.247L23.7858 35.603C23.6912 35.6976 23.573 35.7685 23.4548 35.8158C23.3366 35.863 23.1948 35.8867 23.053 35.8867C22.9111 35.8867 22.7929 35.863 22.6511 35.8158C22.5329 35.7685 22.4147 35.6976 22.3202 35.603L14.3775 27.6367Z" fill="#FFDE52"/>
<path d="M14.3775 27.6367C14.2829 27.5421 14.212 27.4239 14.1411 27.3058C14.0938 27.1876 14.0702 27.0457 14.0702 26.9039C14.0702 26.7621 14.0938 26.6202 14.1411 26.502C14.1884 26.3838 14.2593 26.2656 14.3775 26.1711L27.6862 12.8151C27.7807 12.7206 27.8989 12.6496 28.0171 12.5787C28.1353 12.5315 28.2772 12.5078 28.419 12.5078C28.5608 12.5078 28.7027 12.5315 28.8209 12.5787C28.939 12.626 29.0572 12.6969 29.1518 12.8151L37.0945 20.7814C37.189 20.876 37.2599 20.9942 37.3309 21.1124C37.3781 21.2306 37.4018 21.3724 37.4018 21.5142C37.4018 21.6561 37.3781 21.7979 37.3309 21.9161C37.2836 22.0343 37.2127 22.1525 37.0945 22.247L23.7858 35.603C23.6912 35.6976 23.573 35.7685 23.4548 35.8158C23.3366 35.863 23.1948 35.8867 23.053 35.8867C22.9111 35.8867 22.7929 35.863 22.6511 35.8158C22.5329 35.7685 22.4147 35.6976 22.3202 35.603L14.3775 27.6367Z" fill="white"/>
<path d="M14.3775 27.6367C14.2829 27.5421 14.212 27.4239 14.1411 27.3058C14.0938 27.1876 14.0702 27.0457 14.0702 26.9039C14.0702 26.7621 14.0938 26.6202 14.1411 26.502C14.1884 26.3838 14.2593 26.2656 14.3775 26.1711L27.6862 12.8151C27.7807 12.7206 27.8989 12.6496 28.0171 12.5787C28.1353 12.5315 28.2772 12.5078 28.419 12.5078C28.5608 12.5078 28.7027 12.5315 28.8209 12.5787C28.939 12.626 29.0572 12.6969 29.1518 12.8151L37.0945 20.7814C37.189 20.876 37.2599 20.9942 37.3309 21.1124C37.3781 21.2306 37.4018 21.3724 37.4018 21.5142C37.4018 21.6561 37.3781 21.7979 37.3309 21.9161C37.2836 22.0343 37.2127 22.1525 37.0945 22.247L23.7858 35.603C23.6912 35.6976 23.573 35.7685 23.4548 35.8158C23.3366 35.863 23.1948 35.8867 23.053 35.8867C22.9111 35.8867 22.7929 35.863 22.6511 35.8158C22.5329 35.7685 22.4147 35.6976 22.3202 35.603L14.3775 27.6367Z" fill="#FFDE52"/>
<path d="M14.3775 27.6367C14.2829 27.5421 14.212 27.4239 14.1411 27.3058C14.0938 27.1876 14.0702 27.0457 14.0702 26.9039C14.0702 26.7621 14.0938 26.6202 14.1411 26.502C14.1884 26.3838 14.2593 26.2656 14.3775 26.1711L27.6862 12.8151C27.7807 12.7206 27.8989 12.6496 28.0171 12.5787C28.1353 12.5315 28.2772 12.5078 28.419 12.5078C28.5608 12.5078 28.7027 12.5315 28.8209 12.5787C28.939 12.626 29.0572 12.6969 29.1518 12.8151L37.0945 20.7814C37.189 20.876 37.2599 20.9942 37.3309 21.1124C37.3781 21.2306 37.4018 21.3724 37.4018 21.5142C37.4018 21.6561 37.3781 21.7979 37.3309 21.9161C37.2836 22.0343 37.2127 22.1525 37.0945 22.247L23.7858 35.603C23.6912 35.6976 23.573 35.7685 23.4548 35.8158C23.3366 35.863 23.1948 35.8867 23.053 35.8867C22.9111 35.8867 22.7929 35.863 22.6511 35.8158C22.5329 35.7685 22.4147 35.6976 22.3202 35.603L14.3775 27.6367Z" fill="white"/>
<path fill-rule="evenodd" clip-rule="evenodd" d="M28.2873 13.158C28.1981 13.2126 28.1605 13.2395 28.1356 13.2643C28.1356 13.2643 28.1357 13.2643 28.1356 13.2643L14.8024 26.6449L14.7745 26.6672C14.7688 26.6718 14.7634 26.6774 14.7571 26.6866C14.7502 26.6966 14.7412 26.7126 14.731 26.7382C14.7192 26.7676 14.7055 26.8268 14.7055 26.9042C14.7055 26.9584 14.7123 27.0038 14.7203 27.0362C14.775 27.1254 14.8019 27.163 14.8268 27.1879L14.8275 27.1886L22.7695 35.1542C22.7695 35.1543 22.7694 35.1542 22.7695 35.1542C22.7897 35.1744 22.825 35.1993 22.8721 35.2201C22.9529 35.2457 22.9993 35.2519 23.0532 35.2519C23.1306 35.2519 23.1898 35.2382 23.2193 35.2264C23.2739 35.2045 23.3144 35.1767 23.3368 35.1545C23.3369 35.1544 23.3367 35.1545 23.3368 35.1545L36.6701 21.7737L36.698 21.7514C36.7037 21.7469 36.7091 21.7413 36.7154 21.7321C36.7223 21.7221 36.7313 21.706 36.7415 21.6805C36.7533 21.6511 36.767 21.5918 36.767 21.5145C36.767 21.4602 36.7602 21.4149 36.7522 21.3825C36.6975 21.2932 36.6706 21.2556 36.6457 21.2307L28.6779 13.2392L28.6562 13.2121C28.6517 13.2064 28.6461 13.201 28.6369 13.1947C28.6268 13.1878 28.6108 13.1788 28.5853 13.1686C28.5559 13.1569 28.4966 13.1431 28.4193 13.1431C28.365 13.1431 28.3197 13.1499 28.2873 13.158ZM27.7816 11.9894C27.9885 11.9066 28.2129 11.873 28.4193 11.873C28.6256 11.873 28.85 11.9066 29.057 11.9894C29.2351 12.0606 29.445 12.179 29.6224 12.3877L37.5438 20.3327C37.5439 20.3328 37.5436 20.3325 37.5438 20.3327C37.6947 20.4837 37.8012 20.6615 37.8655 20.7689C37.869 20.7748 37.8724 20.7805 37.8757 20.7859L37.9018 20.8295L37.9207 20.8768C38.0035 21.0838 38.0371 21.3082 38.0371 21.5145C38.0371 21.7208 38.0035 21.9452 37.9207 22.1522C37.8496 22.3301 37.7315 22.5397 37.5233 22.7169L24.2351 36.0523C24.0683 36.2191 23.8725 36.333 23.6909 36.4056C23.484 36.4884 23.2596 36.522 23.0532 36.522C22.8278 36.522 22.6408 36.4819 22.4506 36.4185L22.4329 36.4126L22.4155 36.4056C22.234 36.333 22.0382 36.2191 21.8714 36.0523L13.9287 28.086C13.9287 28.086 13.9287 28.086 13.9287 28.086C13.7776 27.9348 13.6714 27.7573 13.607 27.6498C13.6035 27.6439 13.6001 27.6382 13.5968 27.6328L13.5707 27.5891L13.5518 27.5419C13.469 27.3349 13.4354 27.1105 13.4354 26.9042C13.4354 26.6978 13.469 26.4734 13.5518 26.2665C13.6229 26.0886 13.741 25.879 13.9492 25.7018L27.2366 12.3671L27.2374 12.3664C27.3886 12.2152 27.5661 12.109 27.6736 12.0447C27.6795 12.0411 27.6852 12.0377 27.6907 12.0345L27.7343 12.0083L27.7816 11.9894Z" fill="#010101"/>
<path d="M23.6126 35.7136C23.5202 35.8058 23.4046 35.875 23.2891 35.9442C23.1735 35.9903 23.0349 36.0134 22.8962 36.0134C22.7576 36.0134 22.642 35.9903 22.5034 35.9442C22.3878 35.8981 22.2723 35.8289 22.1798 35.7136L9.16944 22.6833C8.98456 22.4988 8.86902 22.2452 8.86902 21.9684C8.86902 21.6917 8.98456 21.438 9.16944 21.2535L16.9572 13.4815C17.0496 13.3892 17.1652 13.32 17.2807 13.2508C17.3963 13.2047 17.5349 13.1816 17.6736 13.1816C17.8122 13.1816 17.9278 13.2047 18.0664 13.2508C18.182 13.297 18.2975 13.3661 18.3899 13.4815L31.4003 26.5117C31.5852 26.6962 31.7008 26.9499 31.7008 27.2266C31.7008 27.5034 31.5852 27.7571 31.4003 27.9416L23.6126 35.7136Z" fill="#FFDE52"/>
<path d="M23.6126 35.7136C23.5202 35.8058 23.4046 35.875 23.2891 35.9442C23.1735 35.9903 23.0349 36.0134 22.8962 36.0134C22.7576 36.0134 22.642 35.9903 22.5034 35.9442C22.3878 35.8981 22.2723 35.8289 22.1798 35.7136L9.16944 22.6833C8.98456 22.4988 8.86902 22.2452 8.86902 21.9684C8.86902 21.6917 8.98456 21.438 9.16944 21.2535L16.9572 13.4815C17.0496 13.3892 17.1652 13.32 17.2807 13.2508C17.3963 13.2047 17.5349 13.1816 17.6736 13.1816C17.8122 13.1816 17.9278 13.2047 18.0664 13.2508C18.182 13.297 18.2975 13.3661 18.3899 13.4815L31.4003 26.5117C31.5852 26.6962 31.7008 26.9499 31.7008 27.2266C31.7008 27.5034 31.5852 27.7571 31.4003 27.9416L23.6126 35.7136Z" fill="white"/>
<path fill-rule="evenodd" clip-rule="evenodd" d="M17.5499 13.8296C17.4641 13.8821 17.429 13.9074 17.406 13.9302L9.61829 21.7023C9.54461 21.7758 9.50433 21.8708 9.50433 21.9677C9.50433 22.0646 9.54461 22.1596 9.61829 22.2331L9.61909 22.2339L22.6539 35.2887L22.6756 35.3157C22.679 35.3199 22.6833 35.3243 22.6913 35.3297C22.6982 35.3344 22.7086 35.3405 22.7244 35.3475C22.8017 35.372 22.8455 35.3776 22.8965 35.3776C22.9475 35.3776 22.9901 35.3714 23.0204 35.364C23.1062 35.3115 23.1414 35.2863 23.1643 35.2634L30.952 27.4914C31.0257 27.4178 31.066 27.3228 31.066 27.2259C31.066 27.129 31.0257 27.034 30.952 26.9605L17.9164 13.9049L17.8947 13.8779C17.8913 13.8737 17.887 13.8694 17.879 13.8639C17.8722 13.8592 17.8617 13.8531 17.846 13.8461C17.7686 13.8217 17.7248 13.816 17.6738 13.816C17.6228 13.816 17.5803 13.8222 17.5499 13.8296ZM17.0456 12.6603C17.2498 12.5788 17.4708 12.5459 17.6738 12.5459C17.8959 12.5459 18.0801 12.5853 18.2671 12.6476L18.2848 12.6534L18.3021 12.6603C18.4775 12.7303 18.6848 12.8469 18.8602 13.0526L31.8492 26.0615C31.8493 26.0616 31.8491 26.0614 31.8492 26.0615C32.1451 26.3569 32.3361 26.7695 32.3361 27.2259C32.3361 27.6825 32.1453 28.0949 31.8492 28.3903L24.0614 36.1624C23.9123 36.3112 23.7374 36.4156 23.6324 36.4783C23.6266 36.4817 23.621 36.4851 23.6156 36.4883L23.572 36.5144L23.5248 36.5333C23.3206 36.6148 23.0995 36.6477 22.8965 36.6477C22.6744 36.6477 22.4902 36.6083 22.3032 36.5461L22.2855 36.5402L22.2682 36.5333C22.0928 36.4633 21.8855 36.3468 21.7102 36.141L8.72112 23.1321C8.72086 23.1319 8.72059 23.1316 8.72033 23.1313C8.42472 22.8359 8.23425 22.4239 8.23425 21.9677C8.23425 21.5111 8.42506 21.0987 8.72112 20.8033L16.5089 13.0313C16.658 12.8824 16.8329 12.778 16.9379 12.7153C16.9438 12.7119 16.9494 12.7085 16.9547 12.7053L16.9984 12.6792L17.0456 12.6603Z" fill="#010101"/>
<circle cx="25.8087" cy="30.1213" r="0.736508" fill="#010101"/>
<rect x="30.1796" y="13.6611" width="2.94603" height="8.10159" transform="rotate(45 30.1796 13.6611)" fill="#010101"/>
</svg>
